<svg xmlns="http://www.w3.org/2000/svg" xmlns:xlink="http://www.w3.org/1999/xlink" width="500" zoomAndPan="magnify" viewBox="0 0 375 374.999991" height="500" preserveAspectRatio="xMidYMid meet" version="1.0"><defs><g/><clipPath id="e627b2035d"><path d="M 184 72.726562 L 187 72.726562 L 187 129 L 184 129 Z M 184 72.726562 " clip-rule="nonzero"/></clipPath><clipPath id="77c9c41c7f"><path d="M 87.53125 135 L 287.78125 135 L 287.78125 155.976562 L 87.53125 155.976562 Z M 87.53125 135 " clip-rule="nonzero"/></clipPath></defs><rect x="-37.5" width="450" fill="#ffffff" y="-37.499999" height="449.999989" fill-opacity="1"/><rect x="-37.5" width="450" fill="#9a5b41" y="-37.499999" height="449.999989" fill-opacity="1"/><g clip-path="url(#e627b2035d)"><path fill="#ffffff" d="M 185.570312 128.4375 C 185.835938 128.4375 186.0625 128.34375 186.25 128.15625 C 186.4375 127.96875 186.53125 127.742188 186.535156 127.476562 L 186.4375 73.769531 C 186.4375 73.503906 186.34375 73.277344 186.15625 73.089844 C 185.96875 72.902344 185.742188 72.808594 185.480469 72.808594 C 185.214844 72.808594 184.988281 72.902344 184.800781 73.09375 C 184.613281 73.28125 184.519531 73.507812 184.519531 73.773438 L 184.613281 127.476562 C 184.613281 127.742188 184.707031 127.964844 184.894531 128.152344 C 185.082031 128.339844 185.304688 128.4375 185.570312 128.4375 Z M 185.570312 128.4375 " fill-opacity="1" fill-rule="nonzero"/></g><path fill="#ffffff" d="M 231.730469 121.328125 C 231.550781 121.128906 231.328125 121.027344 231.0625 121.015625 C 230.796875 121.003906 230.566406 121.089844 230.371094 121.269531 L 212.792969 137.4375 C 212.613281 137.621094 212.523438 137.839844 212.519531 138.09375 C 212.515625 138.351562 212.601562 138.570312 212.773438 138.757812 C 212.949219 138.945312 213.160156 139.050781 213.417969 139.066406 C 213.671875 139.085938 213.898438 139.011719 214.09375 138.851562 L 231.675781 122.683594 C 231.871094 122.503906 231.972656 122.28125 231.984375 122.015625 C 231.996094 121.753906 231.910156 121.523438 231.730469 121.328125 Z M 231.730469 121.328125 " fill-opacity="1" fill-rule="nonzero"/><path fill="#ffffff" d="M 138.574219 120.5625 C 138.394531 120.757812 138.3125 120.992188 138.324219 121.257812 C 138.332031 121.523438 138.4375 121.746094 138.632812 121.925781 L 157.078125 138.945312 C 157.261719 139.117188 157.480469 139.203125 157.730469 139.203125 C 158.011719 139.203125 158.246094 139.097656 158.4375 138.890625 C 158.613281 138.695312 158.695312 138.464844 158.683594 138.199219 C 158.671875 137.933594 158.566406 137.714844 158.371094 137.535156 L 139.917969 120.515625 C 139.726562 120.339844 139.496094 120.257812 139.238281 120.265625 C 138.976562 120.277344 138.757812 120.375 138.574219 120.5625 Z M 138.574219 120.5625 " fill-opacity="1" fill-rule="nonzero"/><path fill="#ffffff" d="M 195.503906 129.628906 C 195.589844 129.652344 195.679688 129.664062 195.769531 129.664062 C 195.984375 129.664062 196.179688 129.601562 196.347656 129.472656 C 196.519531 129.34375 196.636719 129.175781 196.695312 128.96875 L 207.578125 91.011719 C 207.652344 90.757812 207.625 90.515625 207.496094 90.28125 C 207.367188 90.050781 207.175781 89.898438 206.921875 89.824219 C 206.664062 89.75 206.421875 89.777344 206.191406 89.90625 C 205.957031 90.035156 205.804688 90.226562 205.730469 90.480469 L 194.84375 128.4375 C 194.769531 128.695312 194.796875 128.9375 194.925781 129.171875 C 195.054688 129.402344 195.246094 129.554688 195.503906 129.628906 Z M 195.503906 129.628906 " fill-opacity="1" fill-rule="nonzero"/><path fill="#ffffff" d="M 102.273438 139.324219 C 102.019531 139.257812 101.78125 139.292969 101.558594 139.421875 C 101.332031 139.550781 101.183594 139.742188 101.113281 139.992188 C 101.042969 140.238281 101.066406 140.480469 101.1875 140.707031 C 101.308594 140.9375 101.496094 141.09375 101.742188 141.171875 L 134.503906 150.539062 C 134.589844 150.566406 134.679688 150.578125 134.773438 150.578125 C 135.011719 150.578125 135.222656 150.5 135.40625 150.34375 C 135.589844 150.183594 135.695312 149.984375 135.730469 149.746094 C 135.761719 149.507812 135.710938 149.289062 135.582031 149.085938 C 135.449219 148.886719 135.265625 148.753906 135.035156 148.6875 Z M 102.273438 139.324219 " fill-opacity="1" fill-rule="nonzero"/><path fill="#ffffff" d="M 218.871094 146.160156 C 219.050781 146.5 219.332031 146.671875 219.71875 146.671875 C 219.878906 146.671875 220.03125 146.632812 220.171875 146.558594 L 276.03125 116.886719 C 276.265625 116.761719 276.425781 116.574219 276.503906 116.320312 C 276.582031 116.066406 276.558594 115.820312 276.433594 115.585938 C 276.308594 115.347656 276.117188 115.191406 275.863281 115.113281 C 275.609375 115.035156 275.363281 115.0625 275.128906 115.1875 L 219.269531 144.859375 C 219.035156 144.984375 218.878906 145.171875 218.800781 145.425781 C 218.722656 145.679688 218.746094 145.925781 218.871094 146.160156 Z M 218.871094 146.160156 " fill-opacity="1" fill-rule="nonzero"/><path fill="#ffffff" d="M 165.066406 132.917969 C 165.25 133.214844 165.515625 133.367188 165.863281 133.371094 C 166.238281 133.367188 166.515625 133.203125 166.695312 132.871094 C 166.875 132.542969 166.863281 132.21875 166.664062 131.902344 L 139.496094 88.289062 C 139.429688 88.171875 139.347656 88.074219 139.242188 87.992188 C 139.136719 87.910156 139.023438 87.851562 138.894531 87.816406 C 138.765625 87.785156 138.636719 87.777344 138.503906 87.796875 C 138.375 87.816406 138.25 87.863281 138.140625 87.933594 C 138.027344 88.003906 137.933594 88.09375 137.855469 88.203125 C 137.78125 88.308594 137.730469 88.429688 137.703125 88.558594 C 137.679688 88.691406 137.679688 88.820312 137.707031 88.949219 C 137.734375 89.078125 137.789062 89.199219 137.863281 89.308594 Z M 165.066406 132.917969 " fill-opacity="1" fill-rule="nonzero"/><path fill="#ffffff" d="M 174.457031 129.011719 C 174.515625 129.214844 174.628906 129.382812 174.800781 129.511719 C 174.972656 129.640625 175.164062 129.703125 175.378906 129.703125 C 175.46875 129.703125 175.558594 129.6875 175.644531 129.660156 C 175.769531 129.625 175.882812 129.570312 175.980469 129.488281 C 176.082031 129.40625 176.164062 129.3125 176.222656 129.199219 C 176.285156 129.085938 176.324219 128.964844 176.335938 128.839844 C 176.351562 128.710938 176.339844 128.585938 176.300781 128.460938 L 166.15625 93.769531 C 166.070312 93.527344 165.914062 93.347656 165.6875 93.230469 C 165.460938 93.113281 165.222656 93.09375 164.976562 93.164062 C 164.730469 93.234375 164.542969 93.382812 164.414062 93.605469 C 164.285156 93.824219 164.253906 94.058594 164.3125 94.308594 Z M 174.457031 129.011719 " fill-opacity="1" fill-rule="nonzero"/><path fill="#ffffff" d="M 271.015625 138.410156 L 232.734375 147.902344 C 232.496094 147.957031 232.308594 148.085938 232.171875 148.289062 C 232.03125 148.488281 231.976562 148.707031 232.007812 148.949219 C 232.035156 149.191406 232.140625 149.394531 232.324219 149.554688 C 232.503906 149.714844 232.71875 149.796875 232.960938 149.796875 C 233.039062 149.796875 233.117188 149.789062 233.191406 149.769531 L 271.476562 140.277344 C 271.609375 140.253906 271.726562 140.203125 271.835938 140.128906 C 271.949219 140.054688 272.039062 139.960938 272.109375 139.851562 C 272.179688 139.738281 272.226562 139.617188 272.25 139.488281 C 272.269531 139.355469 272.265625 139.226562 272.234375 139.097656 C 272.203125 138.96875 272.144531 138.851562 272.066406 138.746094 C 271.984375 138.640625 271.886719 138.558594 271.773438 138.492188 C 271.65625 138.425781 271.53125 138.386719 271.402344 138.375 C 271.269531 138.359375 271.140625 138.371094 271.015625 138.410156 Z M 271.015625 138.410156 " fill-opacity="1" fill-rule="nonzero"/><path fill="#ffffff" d="M 204.761719 133.140625 C 204.917969 133.242188 205.089844 133.292969 205.277344 133.292969 C 205.625 133.289062 205.890625 133.140625 206.074219 132.84375 L 235.480469 86.617188 C 235.578125 86.511719 235.648438 86.394531 235.691406 86.257812 C 235.734375 86.121094 235.746094 85.984375 235.726562 85.84375 C 235.707031 85.703125 235.660156 85.570312 235.585938 85.453125 C 235.507812 85.332031 235.410156 85.234375 235.289062 85.15625 C 235.171875 85.082031 235.039062 85.03125 234.898438 85.011719 C 234.757812 84.996094 234.621094 85.007812 234.484375 85.046875 C 234.347656 85.089844 234.230469 85.160156 234.125 85.253906 C 234.019531 85.351562 233.9375 85.464844 233.882812 85.59375 L 204.464844 131.828125 C 204.328125 132.050781 204.289062 132.289062 204.34375 132.542969 C 204.402344 132.800781 204.539062 133 204.761719 133.140625 Z M 204.761719 133.140625 " fill-opacity="1" fill-rule="nonzero"/><path fill="#ffffff" d="M 97.722656 118.230469 L 151.035156 146.675781 C 151.175781 146.753906 151.324219 146.789062 151.484375 146.789062 C 151.703125 146.789062 151.902344 146.71875 152.074219 146.582031 C 152.246094 146.449219 152.359375 146.273438 152.414062 146.058594 C 152.464844 145.847656 152.449219 145.640625 152.359375 145.4375 C 152.269531 145.238281 152.128906 145.085938 151.9375 144.980469 L 98.625 116.53125 C 98.394531 116.421875 98.15625 116.410156 97.914062 116.492188 C 97.667969 116.574219 97.488281 116.726562 97.367188 116.953125 C 97.246094 117.179688 97.222656 117.414062 97.289062 117.660156 C 97.359375 117.910156 97.503906 118.097656 97.722656 118.230469 Z M 97.722656 118.230469 " fill-opacity="1" fill-rule="nonzero"/><g clip-path="url(#77c9c41c7f)"><path fill="#ffffff" d="M 286.460938 154.039062 L 214.007812 154.039062 C 209.582031 142.660156 197.914062 135.035156 184.898438 135.035156 L 184.84375 135.035156 C 171.785156 135.035156 160.199219 142.667969 155.78125 154.042969 L 88.609375 154.15625 C 88.476562 154.148438 88.347656 154.167969 88.222656 154.210938 C 88.097656 154.257812 87.984375 154.324219 87.886719 154.414062 C 87.789062 154.507812 87.714844 154.613281 87.664062 154.734375 C 87.609375 154.859375 87.582031 154.984375 87.582031 155.117188 C 87.582031 155.25 87.609375 155.378906 87.664062 155.5 C 87.714844 155.625 87.789062 155.730469 87.886719 155.820312 C 87.984375 155.910156 88.097656 155.980469 88.222656 156.023438 C 88.347656 156.070312 88.476562 156.089844 88.609375 156.078125 L 156.445312 155.964844 L 286.457031 155.964844 C 286.722656 155.964844 286.949219 155.871094 287.136719 155.679688 C 287.324219 155.492188 287.417969 155.265625 287.417969 155 C 287.417969 154.734375 287.324219 154.507812 287.136719 154.320312 C 286.949219 154.132812 286.722656 154.039062 286.457031 154.039062 Z M 184.847656 136.957031 L 184.898438 136.957031 C 196.859375 136.957031 207.59375 143.78125 211.929688 154.039062 L 157.863281 154.039062 C 162.191406 143.789062 172.851562 136.976562 184.847656 136.957031 Z M 184.847656 136.957031 " fill-opacity="1" fill-rule="nonzero"/></g><g fill="#ffffff" fill-opacity="1"><g transform="translate(43.133361, 224.858303)"><g><path d="M 18.203125 0.640625 C 15.941406 0.640625 13.847656 0.394531 11.921875 -0.09375 C 9.992188 -0.582031 8.300781 -1.179688 6.84375 -1.890625 C 5.394531 -2.597656 4.222656 -3.269531 3.328125 -3.90625 L 2.890625 -12.109375 L 3.53125 -12.171875 C 4.25 -10.117188 5.21875 -8.195312 6.4375 -6.40625 C 7.65625 -4.613281 9.289062 -3.148438 11.34375 -2.015625 C 13.394531 -0.890625 15.976562 -0.328125 19.09375 -0.328125 C 21.0625 -0.328125 22.835938 -0.71875 24.421875 -1.5 C 26.003906 -2.289062 27.273438 -3.359375 28.234375 -4.703125 C 29.191406 -6.054688 29.671875 -7.585938 29.671875 -9.296875 C 29.671875 -10.921875 29.265625 -12.351562 28.453125 -13.59375 C 27.640625 -14.832031 26.582031 -15.910156 25.28125 -16.828125 C 23.976562 -17.742188 22.554688 -18.539062 21.015625 -19.21875 C 19.484375 -19.90625 18.007812 -20.53125 16.59375 -21.09375 C 12.28125 -22.800781 9.097656 -24.570312 7.046875 -26.40625 C 4.992188 -28.238281 3.96875 -30.675781 3.96875 -33.71875 C 3.96875 -36.0625 4.585938 -38.097656 5.828125 -39.828125 C 7.066406 -41.566406 8.785156 -42.914062 10.984375 -43.875 C 13.191406 -44.832031 15.75 -45.3125 18.65625 -45.3125 C 22.195312 -45.3125 24.992188 -44.90625 27.046875 -44.09375 C 29.097656 -43.28125 30.53125 -42.617188 31.34375 -42.109375 L 31.59375 -35.640625 L 31.078125 -35.515625 C 30.398438 -37.003906 29.503906 -38.421875 28.390625 -39.765625 C 27.285156 -41.117188 25.820312 -42.222656 24 -43.078125 C 22.1875 -43.929688 19.847656 -44.359375 16.984375 -44.359375 C 15.234375 -44.359375 13.585938 -44.023438 12.046875 -43.359375 C 10.515625 -42.691406 9.273438 -41.707031 8.328125 -40.40625 C 7.390625 -39.101562 6.921875 -37.445312 6.921875 -35.4375 C 6.921875 -33.863281 7.296875 -32.5 8.046875 -31.34375 C 8.796875 -30.1875 9.789062 -29.179688 11.03125 -28.328125 C 12.269531 -27.472656 13.632812 -26.703125 15.125 -26.015625 C 16.625 -25.335938 18.097656 -24.695312 19.546875 -24.09375 C 22.109375 -23.070312 24.382812 -22.003906 26.375 -20.890625 C 28.363281 -19.785156 29.921875 -18.492188 31.046875 -17.015625 C 32.179688 -15.546875 32.75 -13.675781 32.75 -11.40625 C 32.75 -9.0625 32.078125 -6.976562 30.734375 -5.15625 C 29.390625 -3.34375 27.613281 -1.921875 25.40625 -0.890625 C 23.207031 0.128906 20.804688 0.640625 18.203125 0.640625 Z M 18.203125 0.640625 "/></g></g></g><g fill="#ffffff" fill-opacity="1"><g transform="translate(89.982256, 224.858303)"><g><path d="M 22.5625 0.640625 C 20.289062 0.640625 18.117188 0.351562 16.046875 -0.21875 C 13.984375 -0.800781 12.128906 -1.722656 10.484375 -2.984375 C 8.835938 -4.242188 7.53125 -5.910156 6.5625 -7.984375 C 5.601562 -10.054688 5.125 -12.566406 5.125 -15.515625 L 5.125 -36.71875 C 5.125 -38.6875 5.035156 -40.171875 4.859375 -41.171875 C 4.691406 -42.179688 4.414062 -42.898438 4.03125 -43.328125 C 3.65625 -43.753906 3.164062 -44.03125 2.5625 -44.15625 L 2.5625 -44.859375 L 11.28125 -44.859375 L 11.28125 -44.15625 C 10.6875 -44.03125 10.195312 -43.753906 9.8125 -43.328125 C 9.425781 -42.898438 9.144531 -42.179688 8.96875 -41.171875 C 8.800781 -40.171875 8.71875 -38.6875 8.71875 -36.71875 L 8.71875 -16.921875 C 8.71875 -12.859375 9.453125 -9.617188 10.921875 -7.203125 C 12.398438 -4.796875 14.300781 -3.066406 16.625 -2.015625 C 18.957031 -0.972656 21.425781 -0.453125 24.03125 -0.453125 C 25.445312 -0.453125 26.929688 -0.695312 28.484375 -1.1875 C 30.046875 -1.675781 31.507812 -2.519531 32.875 -3.71875 C 34.25 -4.914062 35.363281 -6.550781 36.21875 -8.625 C 37.070312 -10.695312 37.5 -13.332031 37.5 -16.53125 L 37.5 -35.578125 C 37.5 -37.796875 37.335938 -39.492188 37.015625 -40.671875 C 36.691406 -41.847656 36.25 -42.679688 35.6875 -43.171875 C 35.132812 -43.660156 34.457031 -43.988281 33.65625 -44.15625 L 33.65625 -44.859375 L 41.015625 -44.859375 L 41.015625 -44.15625 C 40.421875 -44.03125 39.929688 -43.753906 39.546875 -43.328125 C 39.160156 -42.898438 38.878906 -42.179688 38.703125 -41.171875 C 38.535156 -40.171875 38.453125 -38.6875 38.453125 -36.71875 L 38.453125 -16.796875 C 38.453125 -12.523438 37.710938 -9.101562 36.234375 -6.53125 C 34.765625 -3.96875 32.820312 -2.128906 30.40625 -1.015625 C 28 0.0859375 25.382812 0.640625 22.5625 0.640625 Z M 22.5625 0.640625 "/></g></g></g><g fill="#ffffff" fill-opacity="1"><g transform="translate(144.649736, 224.858303)"><g><path d="M 37.4375 0.515625 L 7.171875 -40.1875 L 7.171875 -9.296875 C 7.171875 -7.066406 7.332031 -5.363281 7.65625 -4.1875 C 7.976562 -3.019531 8.425781 -2.191406 9 -1.703125 C 9.582031 -1.210938 10.257812 -0.878906 11.03125 -0.703125 L 11.03125 0 L 3.65625 0 L 3.65625 -0.703125 C 4.25 -0.878906 4.738281 -1.164062 5.125 -1.5625 C 5.507812 -1.96875 5.785156 -2.671875 5.953125 -3.671875 C 6.128906 -4.679688 6.21875 -6.171875 6.21875 -8.140625 L 6.21875 -36.71875 C 6.21875 -38.6875 6.097656 -40.171875 5.859375 -41.171875 C 5.628906 -42.179688 5.265625 -42.898438 4.765625 -43.328125 C 4.273438 -43.753906 3.648438 -44.03125 2.890625 -44.15625 L 2.890625 -44.859375 L 8.203125 -44.859375 L 37.296875 -5.828125 L 37.296875 -35.578125 C 37.296875 -37.796875 37.132812 -39.492188 36.8125 -40.671875 C 36.5 -41.847656 36.0625 -42.679688 35.5 -43.171875 C 34.945312 -43.660156 34.265625 -43.988281 33.453125 -44.15625 L 33.453125 -44.859375 L 40.828125 -44.859375 L 40.828125 -44.15625 C 40.234375 -44.03125 39.742188 -43.753906 39.359375 -43.328125 C 38.972656 -42.898438 38.691406 -42.179688 38.515625 -41.171875 C 38.347656 -40.171875 38.265625 -38.6875 38.265625 -36.71875 L 38.265625 0.515625 Z M 37.4375 0.515625 "/></g></g></g><g fill="#ffffff" fill-opacity="1"><g transform="translate(200.086258, 224.858303)"><g><path d="M 18.203125 0.640625 C 15.941406 0.640625 13.847656 0.394531 11.921875 -0.09375 C 9.992188 -0.582031 8.300781 -1.179688 6.84375 -1.890625 C 5.394531 -2.597656 4.222656 -3.269531 3.328125 -3.90625 L 2.890625 -12.109375 L 3.53125 -12.171875 C 4.25 -10.117188 5.21875 -8.195312 6.4375 -6.40625 C 7.65625 -4.613281 9.289062 -3.148438 11.34375 -2.015625 C 13.394531 -0.890625 15.976562 -0.328125 19.09375 -0.328125 C 21.0625 -0.328125 22.835938 -0.71875 24.421875 -1.5 C 26.003906 -2.289062 27.273438 -3.359375 28.234375 -4.703125 C 29.191406 -6.054688 29.671875 -7.585938 29.671875 -9.296875 C 29.671875 -10.921875 29.265625 -12.351562 28.453125 -13.59375 C 27.640625 -14.832031 26.582031 -15.910156 25.28125 -16.828125 C 23.976562 -17.742188 22.554688 -18.539062 21.015625 -19.21875 C 19.484375 -19.90625 18.007812 -20.53125 16.59375 -21.09375 C 12.28125 -22.800781 9.097656 -24.570312 7.046875 -26.40625 C 4.992188 -28.238281 3.96875 -30.675781 3.96875 -33.71875 C 3.96875 -36.0625 4.585938 -38.097656 5.828125 -39.828125 C 7.066406 -41.566406 8.785156 -42.914062 10.984375 -43.875 C 13.191406 -44.832031 15.75 -45.3125 18.65625 -45.3125 C 22.195312 -45.3125 24.992188 -44.90625 27.046875 -44.09375 C 29.097656 -43.28125 30.53125 -42.617188 31.34375 -42.109375 L 31.59375 -35.640625 L 31.078125 -35.515625 C 30.398438 -37.003906 29.503906 -38.421875 28.390625 -39.765625 C 27.285156 -41.117188 25.820312 -42.222656 24 -43.078125 C 22.1875 -43.929688 19.847656 -44.359375 16.984375 -44.359375 C 15.234375 -44.359375 13.585938 -44.023438 12.046875 -43.359375 C 10.515625 -42.691406 9.273438 -41.707031 8.328125 -40.40625 C 7.390625 -39.101562 6.921875 -37.445312 6.921875 -35.4375 C 6.921875 -33.863281 7.296875 -32.5 8.046875 -31.34375 C 8.796875 -30.1875 9.789062 -29.179688 11.03125 -28.328125 C 12.269531 -27.472656 13.632812 -26.703125 15.125 -26.015625 C 16.625 -25.335938 18.097656 -24.695312 19.546875 -24.09375 C 22.109375 -23.070312 24.382812 -22.003906 26.375 -20.890625 C 28.363281 -19.785156 29.921875 -18.492188 31.046875 -17.015625 C 32.179688 -15.546875 32.75 -13.675781 32.75 -11.40625 C 32.75 -9.0625 32.078125 -6.976562 30.734375 -5.15625 C 29.390625 -3.34375 27.613281 -1.921875 25.40625 -0.890625 C 23.207031 0.128906 20.804688 0.640625 18.203125 0.640625 Z M 18.203125 0.640625 "/></g></g></g><g fill="#ffffff" fill-opacity="1"><g transform="translate(246.935147, 224.858303)"><g><path d="M 3.53125 0 L 3.53125 -0.703125 C 4.125 -0.878906 4.613281 -1.164062 5 -1.5625 C 5.382812 -1.96875 5.660156 -2.671875 5.828125 -3.671875 C 6.003906 -4.679688 6.09375 -6.171875 6.09375 -8.140625 L 6.09375 -36.71875 C 6.09375 -38.6875 6.003906 -40.171875 5.828125 -41.171875 C 5.660156 -42.179688 5.382812 -42.898438 5 -43.328125 C 4.613281 -43.753906 4.125 -44.03125 3.53125 -44.15625 L 3.53125 -44.859375 L 32.296875 -44.859375 L 33.078125 -37.234375 L 32.5 -37.109375 C 31.507812 -39.628906 30.109375 -41.410156 28.296875 -42.453125 C 26.484375 -43.503906 24.125 -44.03125 21.21875 -44.03125 L 9.671875 -44.03125 L 9.671875 -24.296875 L 20.1875 -24.296875 C 22.40625 -24.296875 24.101562 -24.453125 25.28125 -24.765625 C 26.457031 -25.085938 27.289062 -25.535156 27.78125 -26.109375 C 28.269531 -26.691406 28.601562 -27.367188 28.78125 -28.140625 L 29.484375 -28.140625 L 29.484375 -19.609375 L 28.78125 -19.609375 C 28.601562 -20.421875 28.269531 -21.101562 27.78125 -21.65625 C 27.289062 -22.21875 26.457031 -22.65625 25.28125 -22.96875 C 24.101562 -23.289062 22.40625 -23.453125 20.1875 -23.453125 L 9.671875 -23.453125 L 9.671875 -3.390625 C 9.671875 -1.679688 10.523438 -0.828125 12.234375 -0.828125 L 22.953125 -0.828125 C 25.847656 -0.828125 28.179688 -1.304688 29.953125 -2.265625 C 31.734375 -3.234375 33.15625 -5.0625 34.21875 -7.75 L 34.796875 -7.625 L 34.21875 0 Z M 3.53125 0 "/></g></g></g><g fill="#ffffff" fill-opacity="1"><g transform="translate(296.027079, 224.858303)"><g><path d="M 13.53125 0 L 13.53125 -0.703125 C 14.125 -0.878906 14.613281 -1.164062 15 -1.5625 C 15.382812 -1.96875 15.660156 -2.671875 15.828125 -3.671875 C 16.003906 -4.679688 16.09375 -6.171875 16.09375 -8.140625 L 16.09375 -44.03125 L 11.671875 -44.03125 C 9.742188 -44.03125 8.171875 -43.847656 6.953125 -43.484375 C 5.734375 -43.117188 4.726562 -42.519531 3.9375 -41.6875 C 3.144531 -40.851562 2.429688 -39.753906 1.796875 -38.390625 L 1.21875 -38.515625 L 1.609375 -44.859375 L 34.09375 -44.859375 L 34.484375 -38.515625 L 33.90625 -38.390625 C 33.257812 -39.753906 32.539062 -40.851562 31.75 -41.6875 C 30.96875 -42.519531 29.96875 -43.117188 28.75 -43.484375 C 27.53125 -43.847656 25.957031 -44.03125 24.03125 -44.03125 L 19.734375 -44.03125 L 19.734375 -8.140625 C 19.734375 -6.171875 19.816406 -4.679688 19.984375 -3.671875 C 20.160156 -2.671875 20.441406 -1.96875 20.828125 -1.5625 C 21.210938 -1.164062 21.703125 -0.878906 22.296875 -0.703125 L 22.296875 0 Z M 13.53125 0 "/></g></g></g><g fill="#ffffff" fill-opacity="1"><g transform="translate(141.683188, 273.236263)"><g><path d="M 12.859375 -15.734375 C 13.003906 -15.878906 13.132812 -15.910156 13.25 -15.828125 C 13.375 -15.742188 13.363281 -15.628906 13.21875 -15.484375 C 12.4375 -14.609375 11.617188 -13.726562 10.765625 -12.84375 C 9.921875 -11.957031 8.976562 -11.101562 7.9375 -10.28125 C 6.875 -9.445312 5.859375 -8.816406 4.890625 -8.390625 C 3.921875 -7.972656 3.066406 -7.78125 2.328125 -7.8125 C 1.597656 -7.851562 1.054688 -8.140625 0.703125 -8.671875 C 0.347656 -9.203125 0.28125 -10.007812 0.5 -11.09375 C 0.632812 -11.757812 0.84375 -12.425781 1.125 -13.09375 C 1.414062 -13.769531 1.75 -14.414062 2.125 -15.03125 C 1.988281 -15.007812 1.851562 -14.988281 1.71875 -14.96875 C 1.59375 -14.957031 1.429688 -14.941406 1.234375 -14.921875 C 0.242188 -14.847656 -0.300781 -15.050781 -0.40625 -15.53125 C -0.507812 -16.019531 -0.207031 -16.691406 0.5 -17.546875 C 0.6875 -17.753906 0.878906 -17.859375 1.078125 -17.859375 C 1.273438 -17.859375 1.414062 -17.789062 1.5 -17.65625 C 1.582031 -17.53125 1.519531 -17.351562 1.3125 -17.125 C 0.9375 -16.695312 0.75 -16.390625 0.75 -16.203125 C 0.75 -16.015625 1.019531 -15.929688 1.5625 -15.953125 C 1.820312 -15.972656 2.066406 -16.003906 2.296875 -16.046875 C 2.535156 -16.097656 2.738281 -16.132812 2.90625 -16.15625 C 3.707031 -16.28125 3.828125 -15.960938 3.265625 -15.203125 C 2.765625 -14.453125 2.375 -13.738281 2.09375 -13.0625 C 1.8125 -12.382812 1.609375 -11.773438 1.484375 -11.234375 C 1.296875 -10.128906 1.476562 -9.421875 2.03125 -9.109375 C 2.59375 -8.804688 3.367188 -8.820312 4.359375 -9.15625 C 5.347656 -9.5 6.398438 -10.070312 7.515625 -10.875 C 8.429688 -11.5625 9.347656 -12.34375 10.265625 -13.21875 C 11.191406 -14.09375 12.054688 -14.929688 12.859375 -15.734375 Z M 12.859375 -15.734375 "/></g></g><g transform="translate(154.266602, 273.236263)"><g><path d="M 11.265625 -15.734375 C 11.410156 -15.878906 11.539062 -15.910156 11.65625 -15.828125 C 11.78125 -15.742188 11.769531 -15.628906 11.625 -15.484375 C 10.582031 -14.328125 9.453125 -13.15625 8.234375 -11.96875 C 7.023438 -10.789062 5.734375 -9.828125 4.359375 -9.078125 C 3.222656 -8.429688 2.179688 -8.035156 1.234375 -7.890625 C 0.296875 -7.753906 -0.484375 -7.859375 -1.109375 -8.203125 C -1.742188 -8.546875 -2.132812 -9.109375 -2.28125 -9.890625 C -2.4375 -10.671875 -2.28125 -11.660156 -1.8125 -12.859375 C -1.269531 -14.253906 -0.503906 -15.410156 0.484375 -16.328125 C 1.484375 -17.253906 2.429688 -17.835938 3.328125 -18.078125 C 4.066406 -18.285156 4.585938 -18.210938 4.890625 -17.859375 C 5.203125 -17.503906 5.269531 -17.03125 5.09375 -16.4375 C 4.914062 -15.851562 4.445312 -15.273438 3.6875 -14.703125 C 3.019531 -14.210938 2.300781 -13.875 1.53125 -13.6875 C 0.769531 -13.5 0.0351562 -13.390625 -0.671875 -13.359375 C -1.335938 -11.941406 -1.503906 -10.851562 -1.171875 -10.09375 C -0.835938 -9.34375 -0.191406 -8.941406 0.765625 -8.890625 C 1.722656 -8.847656 2.835938 -9.171875 4.109375 -9.859375 C 5.359375 -10.535156 6.601562 -11.429688 7.84375 -12.546875 C 9.09375 -13.660156 10.234375 -14.722656 11.265625 -15.734375 Z M 3.265625 -17.1875 C 2.816406 -17.070312 2.273438 -16.773438 1.640625 -16.296875 C 1.015625 -15.828125 0.441406 -15.203125 -0.078125 -14.421875 C 0.441406 -14.453125 1.003906 -14.53125 1.609375 -14.65625 C 2.210938 -14.789062 2.75 -15.046875 3.21875 -15.421875 C 3.8125 -15.847656 4.117188 -16.285156 4.140625 -16.734375 C 4.171875 -17.179688 3.878906 -17.332031 3.265625 -17.1875 Z M 3.265625 -17.1875 "/></g></g><g transform="translate(165.361275, 273.236263)"><g><path d="M 14.671875 -15.734375 C 14.816406 -15.878906 14.945312 -15.914062 15.0625 -15.84375 C 15.175781 -15.769531 15.175781 -15.648438 15.0625 -15.484375 C 14.1875 -14.398438 13.1875 -13.28125 12.0625 -12.125 C 10.945312 -10.96875 9.796875 -10.007812 8.609375 -9.25 C 7.472656 -8.488281 6.414062 -8.03125 5.4375 -7.875 C 4.457031 -7.726562 3.722656 -7.910156 3.234375 -8.421875 C 2.753906 -8.929688 2.679688 -9.800781 3.015625 -11.03125 C 3.203125 -11.707031 3.441406 -12.382812 3.734375 -13.0625 C 4.035156 -13.738281 4.269531 -14.300781 4.4375 -14.75 C 4.550781 -15.070312 4.566406 -15.28125 4.484375 -15.375 C 4.398438 -15.476562 4.207031 -15.289062 3.90625 -14.8125 C 3.664062 -14.4375 3.347656 -13.90625 2.953125 -13.21875 C 2.566406 -12.53125 2.207031 -11.90625 1.875 -11.34375 C 0.976562 -9.851562 0.132812 -8.847656 -0.65625 -8.328125 C -1.445312 -7.804688 -2.066406 -7.679688 -2.515625 -7.953125 C -2.960938 -8.222656 -3.140625 -8.785156 -3.046875 -9.640625 C -2.953125 -10.234375 -2.753906 -10.90625 -2.453125 -11.65625 C -2.160156 -12.414062 -1.796875 -13.164062 -1.359375 -13.90625 C -0.921875 -14.65625 -0.453125 -15.28125 0.046875 -15.78125 C 0.554688 -16.289062 1.054688 -16.585938 1.546875 -16.671875 C 2.046875 -16.753906 2.5 -16.523438 2.90625 -15.984375 C 3.019531 -15.847656 3.007812 -15.679688 2.875 -15.484375 C 2.75 -15.296875 2.582031 -15.160156 2.375 -15.078125 C 2.164062 -14.992188 2 -15.023438 1.875 -15.171875 C 1.613281 -15.503906 1.320312 -15.609375 1 -15.484375 C 0.6875 -15.367188 0.363281 -15.097656 0.03125 -14.671875 C -0.289062 -14.242188 -0.59375 -13.738281 -0.875 -13.15625 C -1.164062 -12.582031 -1.398438 -12 -1.578125 -11.40625 C -1.753906 -10.820312 -1.867188 -10.316406 -1.921875 -9.890625 C -1.960938 -9.179688 -1.832031 -8.84375 -1.53125 -8.875 C -1.238281 -8.914062 -0.847656 -9.1875 -0.359375 -9.6875 C 0.117188 -10.195312 0.601562 -10.820312 1.09375 -11.5625 C 1.519531 -12.21875 1.90625 -12.828125 2.25 -13.390625 C 2.59375 -13.960938 2.953125 -14.507812 3.328125 -15.03125 C 3.941406 -15.78125 4.4375 -16.125 4.8125 -16.0625 C 5.195312 -16.007812 5.296875 -15.59375 5.109375 -14.8125 C 4.960938 -14.25 4.769531 -13.660156 4.53125 -13.046875 C 4.300781 -12.429688 4.113281 -11.804688 3.96875 -11.171875 C 3.78125 -10.222656 3.875 -9.578125 4.25 -9.234375 C 4.632812 -8.890625 5.191406 -8.800781 5.921875 -8.96875 C 6.648438 -9.132812 7.429688 -9.476562 8.265625 -10 C 9.585938 -10.820312 10.796875 -11.78125 11.890625 -12.875 C 12.992188 -13.976562 13.921875 -14.929688 14.671875 -15.734375 Z M 14.671875 -15.734375 "/></g></g><g transform="translate(179.858786, 273.236263)"><g><path d="M 14.921875 -15.84375 C 15.035156 -16.007812 15.164062 -16.054688 15.3125 -15.984375 C 15.457031 -15.910156 15.46875 -15.789062 15.34375 -15.625 C 14.613281 -14.65625 13.820312 -13.648438 12.96875 -12.609375 C 12.125 -11.578125 11.238281 -10.644531 10.3125 -9.8125 C 9.082031 -8.726562 7.910156 -8.082031 6.796875 -7.875 C 5.691406 -7.675781 4.828125 -7.96875 4.203125 -8.75 C 3.578125 -9.53125 3.367188 -10.820312 3.578125 -12.625 C 3.273438 -12.101562 2.9375 -11.5625 2.5625 -11 C 2.195312 -10.445312 1.816406 -9.921875 1.421875 -9.421875 C 0.398438 -8.265625 -0.457031 -7.738281 -1.15625 -7.84375 C -1.851562 -7.957031 -2.222656 -8.460938 -2.265625 -9.359375 C -2.285156 -10.015625 -2.160156 -10.800781 -1.890625 -11.71875 C -1.617188 -12.644531 -1.253906 -13.5625 -0.796875 -14.46875 C -0.335938 -15.382812 0.175781 -16.160156 0.75 -16.796875 C 1.332031 -17.441406 1.914062 -17.816406 2.5 -17.921875 C 3.082031 -18.023438 3.628906 -17.722656 4.140625 -17.015625 C 4.265625 -16.847656 4.257812 -16.671875 4.125 -16.484375 C 4 -16.296875 3.832031 -16.164062 3.625 -16.09375 C 3.425781 -16.019531 3.269531 -16.054688 3.15625 -16.203125 C 2.800781 -16.691406 2.414062 -16.863281 2 -16.71875 C 1.582031 -16.582031 1.179688 -16.25 0.796875 -15.71875 C 0.410156 -15.1875 0.0664062 -14.546875 -0.234375 -13.796875 C -0.546875 -13.054688 -0.785156 -12.328125 -0.953125 -11.609375 C -1.117188 -10.890625 -1.179688 -10.28125 -1.140625 -9.78125 C -1.085938 -9.144531 -0.898438 -8.851562 -0.578125 -8.90625 C -0.265625 -8.96875 0.148438 -9.296875 0.671875 -9.890625 C 1.097656 -10.359375 1.535156 -10.910156 1.984375 -11.546875 C 2.429688 -12.191406 2.832031 -12.785156 3.1875 -13.328125 C 3.539062 -13.867188 3.78125 -14.234375 3.90625 -14.421875 C 4.15625 -15.460938 4.507812 -16.609375 4.96875 -17.859375 C 5.4375 -19.117188 5.988281 -20.378906 6.625 -21.640625 C 7.257812 -22.898438 7.957031 -24.109375 8.71875 -25.265625 C 9.476562 -26.429688 10.28125 -27.453125 11.125 -28.328125 C 11.769531 -29.003906 12.398438 -29.515625 13.015625 -29.859375 C 13.628906 -30.203125 14.140625 -30.335938 14.546875 -30.265625 C 14.960938 -30.203125 15.191406 -29.890625 15.234375 -29.328125 C 15.285156 -28.773438 15.078125 -27.941406 14.609375 -26.828125 C 14.054688 -25.597656 13.359375 -24.367188 12.515625 -23.140625 C 11.679688 -21.910156 10.800781 -20.742188 9.875 -19.640625 C 8.957031 -18.546875 8.070312 -17.585938 7.21875 -16.765625 C 6.375 -15.941406 5.671875 -15.328125 5.109375 -14.921875 C 4.585938 -12.816406 4.503906 -11.273438 4.859375 -10.296875 C 5.210938 -9.316406 5.84375 -8.847656 6.75 -8.890625 C 7.65625 -8.941406 8.691406 -9.425781 9.859375 -10.34375 C 10.753906 -11.082031 11.648438 -11.960938 12.546875 -12.984375 C 13.441406 -14.015625 14.234375 -14.96875 14.921875 -15.84375 Z M 11.734375 -27.890625 C 10.835938 -26.921875 9.976562 -25.75 9.15625 -24.375 C 8.34375 -23.007812 7.625 -21.625 7 -20.21875 C 6.375 -18.8125 5.882812 -17.53125 5.53125 -16.375 C 6.800781 -17.414062 7.976562 -18.546875 9.0625 -19.765625 C 10.15625 -20.984375 11.113281 -22.210938 11.9375 -23.453125 C 12.769531 -24.691406 13.410156 -25.84375 13.859375 -26.90625 C 14.328125 -28.007812 14.503906 -28.742188 14.390625 -29.109375 C 14.273438 -29.484375 13.972656 -29.554688 13.484375 -29.328125 C 13.003906 -29.109375 12.421875 -28.628906 11.734375 -27.890625 Z M 11.734375 -27.890625 "/></g></g><g transform="translate(194.498083, 273.236263)"><g><path d="M 9.609375 -15.734375 C 9.742188 -15.878906 9.875 -15.914062 10 -15.84375 C 10.132812 -15.769531 10.144531 -15.648438 10.03125 -15.484375 C 9.207031 -14.421875 8.289062 -13.289062 7.28125 -12.09375 C 6.28125 -10.90625 5.203125 -9.921875 4.046875 -9.140625 C 3.046875 -8.453125 2.082031 -8.03125 1.15625 -7.875 C 0.238281 -7.726562 -0.5 -7.878906 -1.0625 -8.328125 C -1.632812 -8.773438 -1.894531 -9.578125 -1.84375 -10.734375 C -1.789062 -11.585938 -1.59375 -12.460938 -1.25 -13.359375 C -0.914062 -14.253906 -0.488281 -15.070312 0.03125 -15.8125 C 0.195312 -16.039062 0.378906 -16.160156 0.578125 -16.171875 C 0.785156 -16.191406 0.9375 -16.132812 1.03125 -16 C 1.125 -15.875 1.085938 -15.691406 0.921875 -15.453125 C 0.398438 -14.691406 -0.0078125 -13.953125 -0.3125 -13.234375 C -0.625 -12.515625 -0.789062 -11.78125 -0.8125 -11.03125 C -0.832031 -10.15625 -0.625 -9.554688 -0.1875 -9.234375 C 0.238281 -8.910156 0.804688 -8.820312 1.515625 -8.96875 C 2.234375 -9.113281 2.957031 -9.421875 3.6875 -9.890625 C 4.75 -10.578125 5.785156 -11.476562 6.796875 -12.59375 C 7.816406 -13.71875 8.753906 -14.765625 9.609375 -15.734375 Z M 2.125 -17.828125 C 2.125 -17.828125 2.132812 -17.828125 2.15625 -17.828125 C 2.132812 -17.828125 2.125 -17.828125 2.125 -17.828125 Z M 2.234375 -17.90625 C 2.023438 -17.738281 1.859375 -17.566406 1.734375 -17.390625 C 1.617188 -17.210938 1.515625 -17.0625 1.421875 -16.9375 C 1.347656 -16.800781 1.238281 -16.722656 1.09375 -16.703125 C 0.957031 -16.691406 0.890625 -16.757812 0.890625 -16.90625 C 0.890625 -17.070312 0.910156 -17.226562 0.953125 -17.375 C 1.003906 -17.53125 1.050781 -17.691406 1.09375 -17.859375 C 1.21875 -18.117188 1.351562 -18.367188 1.5 -18.609375 C 1.65625 -18.847656 1.875 -19.015625 2.15625 -19.109375 C 2.351562 -19.148438 2.519531 -19.132812 2.65625 -19.0625 C 2.800781 -19 2.875 -18.875 2.875 -18.6875 C 2.84375 -18.394531 2.734375 -18.195312 2.546875 -18.09375 C 2.359375 -17.988281 2.253906 -17.925781 2.234375 -17.90625 Z M 2.234375 -17.90625 "/></g></g><g transform="translate(203.962228, 273.236263)"><g><path d="M 16.984375 -15.78125 C 17.148438 -15.914062 17.285156 -15.929688 17.390625 -15.828125 C 17.492188 -15.722656 17.460938 -15.597656 17.296875 -15.453125 C 16.378906 -14.578125 15.394531 -13.65625 14.34375 -12.6875 C 13.289062 -11.71875 12.21875 -10.9375 11.125 -10.34375 C 10.15625 -9.832031 9.359375 -9.546875 8.734375 -9.484375 C 8.109375 -9.421875 7.613281 -9.519531 7.25 -9.78125 C 6.882812 -10.039062 6.617188 -10.394531 6.453125 -10.84375 C 6.285156 -11.289062 6.179688 -11.75 6.140625 -12.21875 C 6.109375 -12.695312 6.09375 -13.113281 6.09375 -13.46875 C 6.144531 -14.488281 6.015625 -15.140625 5.703125 -15.421875 C 5.398438 -15.703125 5.003906 -15.707031 4.515625 -15.4375 C 4.035156 -15.164062 3.523438 -14.6875 2.984375 -14 C 2.523438 -13.4375 2.082031 -12.816406 1.65625 -12.140625 C 1.238281 -11.460938 0.84375 -10.816406 0.46875 -10.203125 C 0.101562 -9.585938 -0.21875 -9.082031 -0.5 -8.6875 C -0.96875 -8.070312 -1.375 -7.785156 -1.71875 -7.828125 C -2.0625 -7.878906 -2.253906 -8.128906 -2.296875 -8.578125 C -2.347656 -9.117188 -2.265625 -9.820312 -2.046875 -10.6875 C -1.835938 -11.550781 -1.546875 -12.453125 -1.171875 -13.390625 C -0.796875 -14.335938 -0.40625 -15.179688 0 -15.921875 C 0.113281 -16.148438 0.269531 -16.285156 0.46875 -16.328125 C 0.675781 -16.378906 0.84375 -16.351562 0.96875 -16.25 C 1.101562 -16.144531 1.113281 -15.972656 1 -15.734375 C 0.78125 -15.335938 0.507812 -14.789062 0.1875 -14.09375 C -0.125 -13.394531 -0.421875 -12.671875 -0.703125 -11.921875 C -0.992188 -11.179688 -1.210938 -10.507812 -1.359375 -9.90625 C -1.515625 -9.300781 -1.535156 -8.882812 -1.421875 -8.65625 C -1.160156 -8.863281 -0.84375 -9.289062 -0.46875 -9.9375 C -0.101562 -10.59375 0.3125 -11.328125 0.78125 -12.140625 C 1.25 -12.953125 1.753906 -13.710938 2.296875 -14.421875 C 3.035156 -15.367188 3.800781 -16.023438 4.59375 -16.390625 C 5.382812 -16.753906 6.050781 -16.75 6.59375 -16.375 C 7.132812 -16 7.367188 -15.160156 7.296875 -13.859375 C 7.273438 -13.429688 7.273438 -12.957031 7.296875 -12.4375 C 7.328125 -11.914062 7.445312 -11.457031 7.65625 -11.0625 C 7.863281 -10.675781 8.226562 -10.453125 8.75 -10.390625 C 9.269531 -10.335938 10.003906 -10.5625 10.953125 -11.0625 C 11.867188 -11.53125 12.828125 -12.195312 13.828125 -13.0625 C 14.835938 -13.925781 15.890625 -14.832031 16.984375 -15.78125 Z M 16.984375 -15.78125 "/></g></g><g transform="translate(220.763745, 273.236263)"><g><path d="M 12.796875 -15.671875 C 12.984375 -15.765625 13.097656 -15.742188 13.140625 -15.609375 C 13.191406 -15.484375 13.125 -15.359375 12.9375 -15.234375 C 11.351562 -14.367188 9.804688 -13.453125 8.296875 -12.484375 C 6.785156 -11.515625 5.304688 -10.460938 3.859375 -9.328125 C 3.554688 -8.378906 3.148438 -7.253906 2.640625 -5.953125 C 2.128906 -4.648438 1.570312 -3.300781 0.96875 -1.90625 C 0.375 -0.519531 -0.234375 0.804688 -0.859375 2.078125 C -1.492188 3.359375 -2.101562 4.460938 -2.6875 5.390625 C -3.875 7.203125 -4.96875 8.429688 -5.96875 9.078125 C -6.976562 9.734375 -7.773438 9.894531 -8.359375 9.5625 C -8.953125 9.238281 -9.25 8.515625 -9.25 7.390625 C -9.25 6.265625 -8.84375 4.832031 -8.03125 3.09375 C -7.21875 1.363281 -5.90625 -0.578125 -4.09375 -2.734375 C -2.28125 -4.898438 0.132812 -7.179688 3.15625 -9.578125 C 3.34375 -10.046875 3.546875 -10.617188 3.765625 -11.296875 C 3.992188 -11.984375 4.203125 -12.675781 4.390625 -13.375 C 4.578125 -14.070312 4.671875 -14.632812 4.671875 -15.0625 C 4.703125 -15.394531 4.6875 -15.539062 4.625 -15.5 C 4.5625 -15.46875 4.472656 -15.378906 4.359375 -15.234375 C 4.097656 -14.910156 3.796875 -14.425781 3.453125 -13.78125 C 3.109375 -13.144531 2.726562 -12.46875 2.3125 -11.75 C 1.90625 -11.03125 1.476562 -10.351562 1.03125 -9.71875 C 0.0820312 -8.414062 -0.75 -7.78125 -1.46875 -7.8125 C -2.1875 -7.851562 -2.570312 -8.320312 -2.625 -9.21875 C -2.644531 -9.832031 -2.519531 -10.582031 -2.25 -11.46875 C -1.976562 -12.351562 -1.609375 -13.25 -1.140625 -14.15625 C -0.679688 -15.070312 -0.164062 -15.867188 0.40625 -16.546875 C 0.988281 -17.234375 1.585938 -17.695312 2.203125 -17.9375 C 2.816406 -18.175781 3.40625 -18.054688 3.96875 -17.578125 C 4.132812 -17.460938 4.164062 -17.300781 4.0625 -17.09375 C 3.957031 -16.894531 3.800781 -16.742188 3.59375 -16.640625 C 3.394531 -16.535156 3.210938 -16.539062 3.046875 -16.65625 C 2.671875 -16.96875 2.269531 -17.003906 1.84375 -16.765625 C 1.414062 -16.523438 1 -16.117188 0.59375 -15.546875 C 0.195312 -14.984375 -0.164062 -14.332031 -0.5 -13.59375 C -0.832031 -12.851562 -1.085938 -12.125 -1.265625 -11.40625 C -1.441406 -10.695312 -1.515625 -10.109375 -1.484375 -9.640625 C -1.441406 -9.046875 -1.257812 -8.820312 -0.9375 -8.96875 C -0.613281 -9.113281 -0.226562 -9.476562 0.21875 -10.0625 C 0.632812 -10.582031 1.0625 -11.195312 1.5 -11.90625 C 1.9375 -12.613281 2.363281 -13.296875 2.78125 -13.953125 C 3.195312 -14.617188 3.570312 -15.128906 3.90625 -15.484375 C 4.226562 -15.890625 4.535156 -16.09375 4.828125 -16.09375 C 5.128906 -16.09375 5.289062 -15.820312 5.3125 -15.28125 C 5.3125 -14.875 5.242188 -14.367188 5.109375 -13.765625 C 4.984375 -13.160156 4.835938 -12.554688 4.671875 -11.953125 C 4.515625 -11.359375 4.363281 -10.835938 4.21875 -10.390625 C 6.007812 -11.710938 7.597656 -12.769531 8.984375 -13.5625 C 10.367188 -14.351562 11.640625 -15.054688 12.796875 -15.671875 Z M -3.609375 5.0625 C -3.066406 4.238281 -2.492188 3.238281 -1.890625 2.0625 C -1.296875 0.894531 -0.707031 -0.320312 -0.125 -1.59375 C 0.457031 -2.875 0.992188 -4.109375 1.484375 -5.296875 C 1.984375 -6.492188 2.398438 -7.515625 2.734375 -8.359375 C 0.316406 -6.328125 -1.648438 -4.378906 -3.171875 -2.515625 C -4.691406 -0.648438 -5.847656 1.035156 -6.640625 2.546875 C -7.429688 4.066406 -7.910156 5.328125 -8.078125 6.328125 C -8.242188 7.328125 -8.15625 7.992188 -7.8125 8.328125 C -7.46875 8.660156 -6.929688 8.578125 -6.203125 8.078125 C -5.472656 7.585938 -4.609375 6.582031 -3.609375 5.0625 Z M -3.609375 5.0625 "/></g></g></g></svg>